<svg width="40" height="40" viewBox="0 0 40 40" fill="none" xmlns="http://www.w3.org/2000/svg">
<rect x="8" y="8" width="24" height="24" rx="12" fill="white"/>
<path d="M19.9998 22C20.5554 22 21.0276 21.8055 21.4165 21.4167C21.8054 21.0278 21.9998 20.5555 21.9998 20C21.9998 19.4444 21.8054 18.9722 21.4165 18.5833C21.0276 18.1944 20.5554 18 19.9998 18C19.4443 18 18.9721 18.1944 18.5832 18.5833C18.1943 18.9722 17.9998 19.4444 17.9998 20C17.9998 20.5555 18.1943 21.0278 18.5832 21.4167C18.9721 21.8055 19.4443 22 19.9998 22ZM19.9998 23.3333C19.0776 23.3333 18.2915 23.0083 17.6415 22.3583C16.9915 21.7083 16.6665 20.9222 16.6665 20C16.6665 19.0778 16.9915 18.2917 17.6415 17.6417C18.2915 16.9917 19.0776 16.6667 19.9998 16.6667C20.9221 16.6667 21.7082 16.9917 22.3582 17.6417C23.0082 18.2917 23.3332 19.0778 23.3332 20C23.3332 20.9222 23.0082 21.7083 22.3582 22.3583C21.7082 23.0083 20.9221 23.3333 19.9998 23.3333ZM15.3332 20.6667H12.6665V19.3333H15.3332V20.6667ZM27.3332 20.6667H24.6665V19.3333H27.3332V20.6667ZM19.3332 15.3333V12.6667H20.6665V15.3333H19.3332ZM19.3332 27.3333V24.6667H20.6665V27.3333H19.3332ZM16.2665 17.1667L14.5832 15.55L15.5332 14.5667L17.1332 16.2333L16.2665 17.1667ZM24.4665 25.4333L22.8498 23.75L23.7332 22.8333L25.4165 24.45L24.4665 25.4333ZM22.8332 16.2667L24.4498 14.5833L25.4332 15.5333L23.7665 17.1333L22.8332 16.2667ZM14.5665 24.4667L16.2498 22.85L17.1665 23.7333L15.5498 25.4167L14.5665 24.4667Z" fill="#4F378A"/>
</svg>
