<svg width="40" height="40" viewBox="0 0 40 40" fill="none" xmlns="http://www.w3.org/2000/svg">
<rect x="8" y="8" width="24" height="24" rx="12" fill="#938F99"/>
<path d="M20 26C18.3333 26 16.9167 25.4167 15.75 24.25C14.5833 23.0833 14 21.6667 14 20C14 18.3333 14.5833 16.9167 15.75 15.75C16.9167 14.5833 18.3333 14 20 14C20.1556 14 20.3083 14.0056 20.4583 14.0167C20.6083 14.0278 20.7556 14.0444 20.9 14.0667C20.4444 14.3889 20.0806 14.8083 19.8083 15.325C19.5361 15.8417 19.4 16.4 19.4 17C19.4 18 19.75 18.85 20.45 19.55C21.15 20.25 22 20.6 23 20.6C23.6111 20.6 24.1722 20.4639 24.6833 20.1917C25.1944 19.9194 25.6111 19.5556 25.9333 19.1C25.9556 19.2444 25.9722 19.3917 25.9833 19.5417C25.9944 19.6917 26 19.8444 26 20C26 21.6667 25.4167 23.0833 24.25 24.25C23.0833 25.4167 21.6667 26 20 26ZM20 24.6667C20.9778 24.6667 21.8556 24.3972 22.6333 23.8583C23.4111 23.3194 23.9778 22.6167 24.3333 21.75C24.1111 21.8056 23.8889 21.85 23.6667 21.8833C23.4444 21.9167 23.2222 21.9333 23 21.9333C21.6333 21.9333 20.4694 21.4528 19.5083 20.4917C18.5472 19.5306 18.0667 18.3667 18.0667 17C18.0667 16.7778 18.0833 16.5556 18.1167 16.3333C18.15 16.1111 18.1944 15.8889 18.25 15.6667C17.3833 16.0222 16.6806 16.5889 16.1417 17.3667C15.6028 18.1444 15.3333 19.0222 15.3333 20C15.3333 21.2889 15.7889 22.3889 16.7 23.3C17.6111 24.2111 18.7111 24.6667 20 24.6667Z" fill="#36343B"/>
</svg>
